<svg xmlns="http://www.w3.org/2000/svg" width="100%" height="auto" viewBox="0 0 77 88" version="1.1">
	<path d="M 37.984 6.973 C 30.026 8.413, 22.921 14.760, 20.155 22.899 C 19.435 25.018, 19 33.744, 19 46.059 L 19 65.820 26.363 72.410 C 30.413 76.035, 34.013 79, 34.363 79 C 34.713 79, 35 67.145, 35 52.655 C 35 28.402, 35.145 26.179, 36.829 24.655 C 39.345 22.378, 44.555 22.555, 47 25 C 49.645 27.645, 49.643 33.108, 46.997 35.503 C 45.895 36.500, 43.307 37.590, 41.247 37.925 L 37.500 38.534 37.500 46.017 L 37.500 53.500 43.108 53.481 C 57.568 53.434, 67.872 38.390, 63.572 23.601 C 60.168 11.891, 49.416 4.904, 37.984 6.973" stroke="none" fill="red" fill-rule="evenodd"/>
</svg>
